<?xml version="1.0" standalone="no"?><!DOCTYPE svg PUBLIC "-//W3C//DTD SVG 1.1//EN" "http://www.w3.org/Graphics/SVG/1.1/DTD/svg11.dtd"><svg t="1684248067564" class="icon" viewBox="0 0 1024 1024" version="1.1" xmlns="http://www.w3.org/2000/svg" p-id="4895" data-darkreader-inline-fill="" xmlns:xlink="http://www.w3.org/1999/xlink" width="200" height="200"><path d="M166.511234 10.962042h690.966005v899.348553H166.511234z" fill="#FFFFFF" p-id="4896" data-darkreader-inline-fill="" style="--darkreader-inline-fill: #181a1b;"></path><path d="M868.439281 921.284164H155.549192V0h712.890089z m-690.954478-21.901031h669.018867V21.935612H177.484803z" fill="#684C4B" p-id="4897" data-darkreader-inline-fill="" style="--darkreader-inline-fill: #533d3c;"></path><path d="M486.831105 191.610969a54.522041 54.522041 0 1 1 54.52204-54.522041 54.579675 54.579675 0 0 1-54.52204 54.522041z m0-92.214868a37.750462 37.750462 0 1 0 37.750461 37.738934 37.785042 37.785042 0 0 0-37.750461-37.785042z" fill="#684C4B" p-id="4898" data-darkreader-inline-fill="" style="--darkreader-inline-fill: #afa99e;"></path><path d="M537.099734 191.610969a54.510514 54.510514 0 0 1-54.395245-52.101401l16.748526-0.737719a37.74124 37.74124 0 0 0 75.408708-3.354316c-0.933676-20.80598-19.030843-37.116484-39.375749-36.021432l-0.749246-16.771579a54.522041 54.522041 0 1 1 4.841281 108.928812c-0.829934 0.034581-1.659868 0.057634-2.478275 0.057635zM254.253681 274.189383h460.636319v21.935611H254.253681zM254.253681 339.996218h460.636319v21.935611H254.253681zM254.253681 405.803053h460.636319v21.935612H254.253681zM254.253681 471.609888h460.636319v21.935612H254.253681zM254.253681 537.416723h460.636319v21.935612H254.253681zM440.712144 603.223558h274.189382v21.935612H440.712144zM517.481021 669.030393h197.420505v21.935612H517.481021zM561.352245 734.837228h153.549281v21.935612H561.352245z" fill="#684C4B" p-id="4899" data-darkreader-inline-fill="" style="--darkreader-inline-fill: #533d3c;"></path><path d="M262.310955 867.707326c-2.812553 54.107074-4.702958 73.944797-3.81539 132.558872 0.18443 12.229997 15.768742 17.370976 23.192039 7.642308l0.138322-0.18443c13.982079-18.442974 24.898014-31.364582 37.64672-47.582872a12.887028 12.887028 0 0 1 20.321852 0.080688c9.509658 12.241524 23.215093 29.796929 34.960961 44.343825 7.584673 9.382863 22.742492 4.103562 22.949976-7.96506 1.071998-60.654329 2.143996-66.095007 3.204466-130.184339z" fill="#ED758D" p-id="4900" data-darkreader-inline-fill="" style="--darkreader-inline-fill: #ed718a;"></path><path d="M271.567022 1024a24.402359 24.402359 0 0 1-7.63078-1.233374 23.595479 23.595479 0 0 1-16.40272-22.315998c-0.749246-49.358008 0.472601-71.846909 2.524382-109.090189l1.832771-34.522941 160.223333-1.463911-0.18443 11.250214c-0.553289 32.989869-1.152686 50.48764-1.648341 67.91625-0.530235 16.448827-1.037417 32.84002-1.556126 62.245036a23.895178 23.895178 0 0 1-42.453419 14.662164c-11.791976-14.60453-25.555045-32.217569-35.087758-44.516727a1.867351 1.867351 0 0 0-1.521545-0.749246 1.878878 1.878878 0 0 0-1.510018 0.726192c-4.783646 6.086181-9.313702 11.711288-13.832231 17.290288-7.492458 9.313702-14.984916 18.615876-23.687694 30.0851a23.745328 23.745328 0 0 1-19.065424 9.717142z m1.152686-145.422847l-0.749246 13.98208c-2.0172 36.770679-3.22752 58.959881-2.489801 107.557116a1.729029 1.729029 0 0 0 1.348642 1.809717 1.705975 1.705975 0 0 0 2.143996-0.645504c8.956369-11.826557 16.587149-21.290108 24.206403-30.753658 4.472421-5.555946 8.944842-11.111892 13.682381-17.140439a23.722275 23.722275 0 0 1 18.754199-9.106218h0.103741a23.699221 23.699221 0 0 1 18.777253 9.221487c9.475078 12.206943 23.122878 29.693187 34.822639 44.170921a1.682921 1.682921 0 0 0 2.109415 0.610924 1.809717 1.809717 0 0 0 1.348643-1.867351c0.518709-29.577919 1.037417-46.107434 1.567653-62.579315 0.472601-15.250034 0.956729-30.546175 1.440857-56.343284z" fill="#684C4B" p-id="4901" data-darkreader-inline-fill="" style="--darkreader-inline-fill: #afa99e;"></path><path d="M330.174832 798.688921m-87.96428 36.435998a95.211851 95.211851 0 1 0 175.928561-72.871996 95.211851 95.211851 0 1 0-175.928561 72.871996Z" fill="#EBDD9E" p-id="4902" data-darkreader-inline-fill="" style="--darkreader-inline-fill: #4b4010;"></path><path d="M330.158044 904.869918a106.18542 106.18542 0 1 1 106.18542-106.185421 106.300689 106.300689 0 0 1-106.18542 106.185421z m0-190.435229a84.249809 84.249809 0 1 0 84.249809 84.249808 84.342024 84.342024 0 0 0-84.249809-84.249808z" fill="#684C4B" p-id="4903" data-darkreader-inline-fill="" style="--darkreader-inline-fill: #533d3c;"></path><path d="M361.856905 740.300959c-9.140799-3.78081-19.100005-3.619434-26.788419 0.484128a23.84907 23.84907 0 0 0-9.117745 8.495295 36.217389 36.217389 0 0 0-14.546896-11.619074c-7.527039-3.273628-15.872484-3.181413-22.431266 0.276645-13.163672 6.916115-14.108875 22.23531-14.616057 30.465487-0.380386 5.98244-0.795353 12.783286 0.518709 19.883831a69.864289 69.864289 0 0 0 5.279301 15.837903 176.130398 176.130398 0 0 0 38.568868 54.971589l8.345446 7.999639 7.538565-8.771939c2.305372-2.720339 3.22752-3.769283 5.417624-6.63947a187.887793 187.887793 0 0 1 14.846594-16.494935c12.045567-12.391373 24.506101-25.209239 29.624026-44.217029 3.043091-11.342429 3.054617-27.341708-6.028547-38.26917a43.375568 43.375568 0 0 0-16.610203-12.4029z m1.498491 44.954748c-3.63096 13.497951-13.601693 23.756855-24.206402 34.580576-4.610743 4.679905-9.221487 9.486605-13.567113 14.708271a155.923815 155.923815 0 0 1-25.416723-39.44491 51.029402 51.029402 0 0 1-3.769282-10.881354c-0.818407-4.426314-0.518709-9.313702-0.195957-14.512315 0.207483-3.354316 0.691612-11.215633 3.873024-12.575803a6.697105 6.697105 0 0 1 2.547436 0.610924c4.783646 2.063308 8.460714 7.400243 11.918772 17.290288a13.670854 13.670854 0 0 0 12.817866 9.221486 13.186726 13.186726 0 0 0 12.310685-8.495294 70.371471 70.371471 0 0 0 2.432167-7.942006c1.152686-4.357153 1.924985-7.042911 3.250575-7.757575 1.878878-1.002837 5.037237-0.829934 8.0688 0.426493a21.439957 21.439957 0 0 1 8.172543 6.143816c2.939349 3.538746 3.665541 11.515332 1.763609 18.627403z" fill="#684C4B" p-id="4904" data-darkreader-inline-fill="" style="--darkreader-inline-fill: #afa99e;"></path></svg>