<?xml version="1.0" standalone="no"?><!DOCTYPE svg PUBLIC "-//W3C//DTD SVG 1.1//EN" "http://www.w3.org/Graphics/SVG/1.1/DTD/svg11.dtd"><svg t="1591325315758" class="icon" viewBox="0 0 1024 1024" version="1.1" xmlns="http://www.w3.org/2000/svg" p-id="3600" width="32" height="32" xmlns:xlink="http://www.w3.org/1999/xlink"><defs><style type="text/css"></style></defs><path d="M832 729.6v102.4h-166.4v-102.4H537.6V537.6h128v128h166.4V537.6h128v192h-128zM64 64h422.4v422.4H64V64z m0 473.6h422.4v422.4H64V537.6z m473.6-473.6h422.4v422.4H537.6V64zM192 192v166.4h166.4V192H192z m0 473.6v166.4h166.4v-166.4H192z m473.6-473.6v166.4h166.4V192h-166.4zM537.6 832h128v128H537.6v-128z m294.4 0h128v128h-128v-128z" p-id="3601" fill="#ffffff"></path></svg>