<?xml version="1.0" encoding="UTF-8"?>
<svg width="34px" height="34px" viewBox="0 0 34 34" version="1.1" xmlns="http://www.w3.org/2000/svg" xmlns:xlink="http://www.w3.org/1999/xlink">
    <!-- Generator: Sketch 60 (88103) - https://sketch.com -->
    <title>画板备份 160</title>
    <desc>Created with Sketch.</desc>
    <g id="画板备份-160" stroke="none" stroke-width="1" fill="none" fill-rule="evenodd">
        <g id="nanlaoshitouxiang" fill-rule="nonzero">
            <path d="M0.0125791513,16.6380139 C0.0125791513,25.8291748 7.46362519,33.2802208 16.6547861,33.2802208 C25.845947,33.2802208 33.2928,25.8291748 33.2928,16.6380139 C33.2928,7.44685297 25.841754,0 16.650593,0 C7.46362519,0 0.0125791513,7.446853 0.0125791513,16.6380139 Z" id="路径" fill="#F0FFF8"></path>
            <path d="M16.650593,33.2802208 C20.7262355,33.2802208 24.4496621,31.8210402 27.3470581,29.3932655 C26.8145411,28.8481693 26.1268812,28.3240383 25.1876385,27.7663629 C23.1665894,26.5587652 20.411757,25.8082096 19.3425298,25.5188893 C18.2774956,25.2253759 18.4410245,25.2253759 18.3026539,25.5188893 C17.9965614,26.0136689 17.4640443,26.3071823 16.8812107,26.3071823 C16.1306551,26.3071823 15.8413348,26.1310742 15.5352423,25.8249818 C15.3717135,25.674032 15.241729,25.4811518 15.1662541,25.2673064 C13.4638767,25.4308353 10.42811,26.5126416 8.67541601,27.51478 C7.67327756,28.0850346 6.82208887,28.6594821 6.07153329,29.4980917 C8.93957802,31.8545846 12.6252671,33.2802208 16.650593,33.2802208 Z" id="路径" fill="#00BC86"></path>
            <path d="M16.8057358,21.9086751 C17.6569246,21.9086751 18.3571635,22.7976012 18.3571635,23.9045658 L18.3571635,25.7075764 C18.3571635,26.8145411 17.6569246,27.7034672 16.8057358,27.7034672 C15.9545471,27.7034672 15.2543081,26.8145411 15.2543081,25.7075764 L15.2543081,23.9045658 C15.2543081,22.7976012 15.9545471,21.9086751 16.8057358,21.9086751" id="路径" fill="#FFCAB4"></path>
            <path d="M9.15761654,17.1160213 C9.15761654,18.0888084 9.94590954,18.8729084 10.9145036,18.8729084 C11.8872907,18.8729084 12.6713906,18.0846154 12.6713906,17.1160213 C12.6713906,16.1432342 11.8830976,15.3591177 10.9145036,15.3591177 C9.94590951,15.3549413 9.15761654,16.1432343 9.15761654,17.1160213 M20.9442741,17.1160213 C20.9442741,17.8288395 21.3719649,18.4703758 22.0302735,18.7429239 C22.6873605,19.0153878 23.4439001,18.8647421 23.9464963,18.3613566 C24.4496621,17.8581908 24.6006118,17.1034422 24.3280637,16.4451337 C24.0555155,15.7868252 23.4139793,15.3591177 22.7011611,15.3591177 C21.728374,15.3549413 20.9442741,16.1432343 20.9442741,17.1160213" id="形状" fill="#FDD4BD"></path>
            <path d="M15.4597675,28.7685013 C15.4597675,28.7685013 16.4115893,29.5567943 16.8057358,29.5567943 C17.1244075,29.5567943 18.0888085,28.8817136 18.1013876,28.7936596 C18.1265459,28.7056057 16.8937898,27.5860619 16.8937898,27.5860619 L16.6380139,27.5860619 L15.4597675,28.7685013 L15.4597675,28.7685013 Z" id="路径" fill="#4285F4"></path>
            <path d="M18.3529705,25.0241096 C18.3529705,24.8983182 20.4620736,25.493731 20.4620736,25.493731 C20.2482281,26.1813908 19.9672939,26.8522785 19.6360431,27.4896218 C19.1412635,28.4288645 18.5416576,29.5484083 18.3529705,29.5484083 C18.1768625,29.5484083 17.5898358,28.734957 16.8937898,27.5902549 C16.8937898,27.5902549 17.3759903,27.2212667 17.8959283,26.3071823 C18.0888085,25.9004566 18.2397582,25.4685727 18.3529705,25.0241096 L18.3529705,25.0241096 Z M15.2543081,25.0031444 C15.2543081,24.8773529 13.0697302,25.4895379 13.0697302,25.4895379 C13.2877687,26.1771978 13.5645098,26.8480854 13.8957606,27.4854287 C14.3905402,28.4246714 14.9901461,29.5442152 15.1788333,29.5442152 C15.3549413,29.5442152 15.941968,28.730764 16.6380139,27.5860619 C16.6380139,27.5860619 16.1558134,27.2170737 15.6358755,26.3029892 C15.4429953,25.9004566 15.3675204,25.4476075 15.2543081,25.0031444 Z" id="形状" fill="#FFFFFF"></path>
            <path d="M10.6587277,13.2206799 L10.6587277,18.1097737 C10.6587277,20.5543206 13.1745564,24.2987123 16.8937898,24.2987123 C20.7220425,24.2987123 23.128852,20.5543206 23.128852,18.1097737 L23.128852,13.2206799 C23.128852,9.7781876 20.3362821,6.98561774 16.8937898,6.98561774 C13.4512975,6.98561774 10.6587277,9.7781876 10.6587277,13.2206799 Z" id="路径" fill="#FFE1CD"></path>
            <path d="M23.128852,13.4429114 C23.1540103,15.5016979 22.7514777,15.8413348 22.7514777,15.8413348 C22.7514777,15.8413348 23.9506894,15.4304161 24.3867664,12.8097612 C24.8060711,10.3065116 24.9067043,8.11774067 24.9067043,8.11774067 L20.7513939,8.38609572 C20.7388147,8.40706095 23.0785354,10.1555619 23.128852,13.4429114" id="路径" fill="#604347"></path>
            <path d="M25.3260091,7.18688403 C24.9821792,7.41750166 22.9233926,7.30009632 21.6025826,6.28537873 C18.31104,3.73181258 14.0970269,3.92469279 11.5434607,5.92896968 C9.52241166,7.50555569 8.59574809,10.6587277 9.58530742,15.4471883 C9.58530742,15.4471883 9.84108335,15.7239295 10.0800871,15.8706861 C10.4700405,16.1138829 10.780326,16.2187091 10.780326,16.2187091 C10.780326,16.2187091 10.4868127,13.1577842 11.0109437,12.3191746 C11.5015303,11.5350746 12.2814372,10.2603881 14.1641157,10.4993918 C18.8519431,11.0948046 25.5063101,10.688079 25.6614529,7.36299205 C25.6446807,7.35460594 25.6824181,6.96045947 25.3260091,7.18688403" id="路径" fill="#4B3335"></path>
        </g>
    </g>
</svg>