<?xml version="1.0" encoding="UTF-8"?>
<svg width="34px" height="34px" viewBox="0 0 34 34" version="1.1" xmlns="http://www.w3.org/2000/svg" xmlns:xlink="http://www.w3.org/1999/xlink">
    <!-- Generator: Sketch 60 (88103) - https://sketch.com -->
    <title>画板备份 159</title>
    <desc>Created with Sketch.</desc>
    <g id="画板备份-159" stroke="none" stroke-width="1" fill="none" fill-rule="evenodd">
        <g id="nanlaoshitouxiang备份" fill-rule="nonzero">
            <path d="M0.0125562765,16.7721914 C0.0125562765,26.0374746 7.45005282,33.5486097 16.6244999,33.5486097 C25.798947,33.5486097 33.2322581,26.0374746 33.2322581,16.7721914 C33.2322581,7.50690824 25.7947615,0 16.6203144,0 C7.45005282,0 0.0125562765,7.50690827 0.0125562765,16.7721914 Z" id="路径" fill="#EBF6FF"></path>
            <path d="M16.6203144,33.5486097 C20.6885455,33.5486097 24.4052011,32.0776615 27.2973283,29.6303079 C26.7657796,29.0808158 26.0793703,28.5524579 25.1418355,27.9902852 C23.1244617,26.7729487 20.3746388,26.0163403 19.307356,25.7246868 C18.2442586,25.4288064 18.40749,25.4288064 18.2693711,25.7246868 C17.9638352,26.2234566 17.4322865,26.519337 16.8505127,26.519337 C16.101322,26.519337 15.8125278,26.3418087 15.506992,26.0332477 C15.3437605,25.8810807 15.2140124,25.686645 15.1386747,25.471075 C13.439393,25.6359226 10.4091468,26.7264533 8.65964003,27.7366734 C7.65932394,28.3115268 6.80968311,28.8906069 6.06049239,29.7359795 C8.92332167,32.1114764 12.6023084,33.5486097 16.6203144,33.5486097 Z" id="路径" fill="#4758C2"></path>
            <path d="M16.7751751,22.0853579 C17.624816,22.0853579 18.3237816,22.9814528 18.3237816,24.0973446 L18.3237816,25.9148956 C18.3237816,27.0307874 17.624816,27.9268823 16.7751751,27.9268823 C15.9255342,27.9268823 15.2265686,27.0307874 15.2265686,25.9148956 L15.2265686,24.0973446 C15.2265686,22.9814528 15.9255342,22.0853579 16.7751751,22.0853579" id="路径" fill="#FFCAB4"></path>
            <path d="M9.14096369,17.2540538 C9.14096369,18.2346859 9.92782321,19.0251093 10.8946559,19.0251093 C11.865674,19.0251093 12.6483481,18.2304591 12.6483481,17.2540538 C12.6483481,16.2734216 11.8614886,15.4829815 10.8946559,15.4829815 C9.92782318,15.4787714 9.14096369,16.2734216 9.14096369,17.2540538 M20.9061875,17.2540538 C20.9061875,17.9726204 21.3331007,18.6193304 21.9902121,18.8940765 C22.6461043,19.1687377 23.401268,19.0168771 23.9029504,18.509432 C24.4052011,18.0022085 24.5558763,17.2413732 24.2838238,16.5777558 C24.0117713,15.9141383 23.3714017,15.4829815 22.6598797,15.4829815 C21.6888616,15.4787714 20.9061875,16.2734216 20.9061875,17.2540538" id="形状" fill="#FDD4BD"></path>
            <path d="M15.4316543,29.0005054 C15.4316543,29.0005054 16.3817454,29.7951556 16.7751751,29.7951556 C17.0932672,29.7951556 18.0559145,29.1146307 18.0684708,29.0258666 C18.0935833,28.9371025 16.863069,27.8085301 16.863069,27.8085301 L16.6077582,27.8085301 L15.4316543,29.0005054 L15.4316543,29.0005054 Z" id="路径" fill="#F4744A"></path>
            <path d="M18.3195962,25.2259169 C18.3195962,25.0991111 20.4248639,25.6993256 20.4248639,25.6993256 C20.2114073,26.3925311 19.930984,27.0688291 19.6003356,27.7113123 C19.1064557,28.6581295 18.5079402,29.7867019 18.3195962,29.7867019 C18.1438084,29.7867019 17.5578492,28.9666905 16.863069,27.812757 C16.863069,27.812757 17.3443926,27.4407931 17.8633851,26.519337 C18.0559145,26.1093313 18.2065898,25.6739644 18.3195962,25.2259169 L18.3195962,25.2259169 Z M15.2265686,25.2047826 C15.2265686,25.0779767 13.0459633,25.6950987 13.0459633,25.6950987 C13.2636053,26.3883042 13.5398432,27.0646023 13.8704916,27.7070854 C14.3643715,28.6539027 14.962887,29.782475 15.151231,29.782475 C15.3270188,29.782475 15.912978,28.9624637 16.6077582,27.8085301 C16.6077582,27.8085301 16.1264345,27.4365662 15.6074421,26.5151101 C15.4149127,26.1093313 15.3395751,25.6528301 15.2265686,25.2047826 Z" id="形状" fill="#FFFFFF"></path>
            <path d="M10.6393451,13.3272983 L10.6393451,18.2558203 C10.6393451,20.7200813 13.1505989,24.4946697 16.863069,24.4946697 C20.6843601,24.4946697 23.0867929,20.7200813 23.0867929,18.2558203 L23.0867929,13.3272983 C23.0867929,9.85704395 20.2993012,7.04195336 16.863069,7.04195336 C13.4268368,7.04195336 10.6393451,9.85704395 10.6393451,13.3272983 Z" id="路径" fill="#FFE1CD"></path>
            <g id="编组-14" transform="translate(11.240323, 13.325806)">
                <path d="M4.15555948,2.84175907 L3.85393397,2.61040827 C4.25101058,2.07830141 4.86189768,1.76983367 5.52241935,1.76983367 C6.07985383,1.76983367 6.60292591,1.98961694 7.00000252,2.38676915 L6.73273942,2.65667843 C6.40820565,2.32893145 5.98058468,2.1515625 5.52241935,2.1515625 C4.98025706,2.1515625 4.48391129,2.40219254 4.15555948,2.84175907 L4.15555948,2.84175907 Z" id="路径" fill="#3A3A3A"></path>
                <path d="M6.44638609,2.47545363 C6.44638609,3.73826217 7.46005832,4.76197077 8.71048639,4.76197077 C9.96091446,4.76197077 10.9745867,3.73826217 10.9745867,2.47545363 C10.9745867,1.21264508 9.96091446,0.188936492 8.71048639,0.188936492 C7.46005832,0.188936492 6.44638609,1.21264508 6.44638609,2.47545363 Z" id="路径" fill="#FFFFFF"></path>
                <path d="M0.187084173,2.47545363 C0.187084173,3.73826217 1.20075641,4.76197077 2.45118448,4.76197077 C3.70161254,4.76197077 4.71528478,3.73826217 4.71528478,2.47545363 C4.71528478,1.21264508 3.70161254,0.188936492 2.45118448,0.188936492 C1.20075641,0.188936492 0.187084173,1.21264508 0.187084173,2.47545363 Z" id="路径备份" fill="#FFFFFF"></path>
                <path d="M8.71048639,4.95090726 C7.35889869,4.95090726 6.25930192,3.84042339 6.25930192,2.47545363 C6.25930192,1.11048387 7.35889869,-3.55271368e-15 8.71048639,-3.55271368e-15 C10.0620741,-3.55271368e-15 11.1616709,1.11048387 11.1616709,2.47545363 C11.1616709,3.84042339 10.0620741,4.95090726 8.71048639,4.95090726 Z M8.71048639,0.377872984 C7.56507308,0.377872984 6.63728831,1.3186996 6.63728831,2.47159778 C6.63728831,3.62835181 7.56889113,4.56532258 8.71048639,4.56532258 C9.8558997,4.56532258 10.7836962,3.62449597 10.7836962,2.47159778 C10.7875025,1.3186996 9.8558997,0.377872984 8.71048639,0.377872984 L8.71048639,0.377872984 Z" id="形状" fill="#3A3A3A"></path>
                <path d="M2.45118448,4.95090726 C1.09959677,4.95090726 -8.8817842e-15,3.84042339 -8.8817842e-15,2.47545363 C-8.8817842e-15,1.11048387 1.09959677,-3.55271368e-15 2.45118448,-3.55271368e-15 C3.80277218,-3.55271368e-15 4.90236895,1.11048387 4.90236895,2.47545363 C4.90236895,3.84042339 3.80277218,4.95090726 2.45118448,4.95090726 Z M2.45118448,0.377872984 C1.30577117,0.377872984 0.377986391,1.3186996 0.377986391,2.47159778 C0.377986391,3.62835181 1.30958921,4.56532258 2.45118448,4.56532258 C3.59659778,4.56532258 4.52439425,3.62449597 4.52439425,2.47159778 C4.5282006,1.3186996 3.59659778,0.377872984 2.45118448,0.377872984 L2.45118448,0.377872984 Z" id="形状备份" fill="#3A3A3A"></path>
            </g>
            <path d="M23.5792207,8.1435484 C23.2625202,7.28897849 21.3623167,5.42903226 16.8229419,5.42903226 C12.2835671,5.42903226 10.3833636,7.28897849 10.0666631,8.1435484 C9.74996255,8.9981183 9.1165614,10.6067204 9.32769509,12.4163979 C9.53882878,14.2260753 10.17223,15.8346774 10.17223,15.8346774 L10.5944974,16.2870968 L10.8584145,13.7736559 L11.7029494,12.8185484 L12.4947008,10.3553763 C13.3920191,10.6067204 16.8757253,11.1596774 16.8757253,11.1596774 C16.8757253,11.1596774 20.3594316,10.5564516 21.2567499,10.3553763 L22.0485013,12.8185484 L22.8930362,13.7736559 L23.1569533,16.2870968 L23.5792207,15.8346774 C23.5792207,15.8346774 24.2654053,14.2260753 24.4237556,12.4163979 C24.5293224,10.6569893 23.8959213,8.9981183 23.5792207,8.1435484 L23.5792207,8.1435484 Z" id="路径" fill="#4B3335"></path>
        </g>
    </g>
</svg>